<svg width="129" height="84" viewBox="0 0 129 84" fill="none" xmlns="http://www.w3.org/2000/svg">
<path d="M0 6.99291C0 3.52846 2.70018 0.719971 6.03101 0.719971H60.1155C63.4464 0.719971 66.1466 3.52846 66.1466 6.99291V77.007C66.1466 80.4715 63.4464 83.28 60.1155 83.28H6.03101C2.70017 83.28 0 80.4715 0 77.007V6.99291Z" fill="#D52B1E"/>
<path d="M10.5197 33.0964V14.9086H18.9334C21.6873 14.9086 23.0643 16.3408 23.0643 19.2052V22.7109C23.0643 25.5577 21.6873 26.9811 18.9334 26.9811H13.6115V33.0964H10.5197ZM13.6115 24.0553H18.8574C19.6008 24.0553 19.9725 23.6687 19.9725 22.8955V18.9679C19.9725 18.2123 19.6008 17.8345 18.8574 17.8345H13.6115V24.0553Z" fill="white"/>
<path d="M26.6063 33.0964V14.9086H35.02C37.7739 14.9086 39.1508 16.3408 39.1508 19.2052V22.1838C39.1508 24.3979 38.3061 25.7422 36.6166 26.2167L39.6577 32.4111L39.2775 33.0964H36.6419L33.3981 26.4539H29.6981V33.0964H26.6063ZM29.6981 23.5281H34.944C35.6874 23.5281 36.059 23.1415 36.059 22.3683V18.9679C36.059 18.2123 35.6874 17.8345 34.944 17.8345H29.6981V23.5281Z" fill="white"/>
<path d="M42.6869 28.7999V19.2052C42.6869 16.3408 44.0638 14.9086 46.8177 14.9086H52.6212C55.3751 14.9086 56.752 16.3408 56.752 19.2052V28.7999C56.752 31.6643 55.3751 33.0964 52.6212 33.0964H46.8177C44.0638 33.0964 42.6869 31.6643 42.6869 28.7999ZM45.7787 29.0371C45.7787 29.7928 46.1504 30.1706 46.8938 30.1706H52.5451C53.2885 30.1706 53.6602 29.7928 53.6602 29.0371V18.9679C53.6602 18.2123 53.2885 17.8345 52.5451 17.8345H46.8938C46.1504 17.8345 45.7787 18.2123 45.7787 18.9679V29.0371Z" fill="white"/>
<path d="M10.5197 66.08V47.8922H13.6115V66.08H10.5197Z" fill="white"/>
<path d="M17.9195 66.08V47.8922H21.2901L29.0449 60.8609V47.8922H32.1367V66.08H28.7915L21.0113 53.1113V66.08H17.9195Z" fill="white"/>
<path d="M34.7836 48.5248L35.1891 47.8922H37.8754L42.209 63.1541H42.6905L47.024 47.8922H49.7357L50.1158 48.5248L44.9459 66.08H39.9281L34.7836 48.5248Z" fill="white"/>
<path d="M52.7408 66.08V47.8922H64.4997V50.818H55.8326V55.1937H63.7394V58.1195H55.8326V63.1541H64.4997V66.08H52.7408Z" fill="white"/>
<path d="M67.1514 64.8675V63.1541H74.9822C75.7256 63.1541 76.0973 62.7763 76.0973 62.0207V60.0174C76.0973 59.3496 75.8101 58.9542 75.2356 58.8312L70.0911 57.7505C68.1313 57.3463 67.1514 55.9756 67.1514 53.6385V52.1887C67.1514 49.3243 68.5283 47.8922 71.2822 47.8922H77.187L78.6822 49.1047V50.818H71.3582C70.6148 50.818 70.2431 51.1958 70.2431 51.9515V53.7175C70.2431 54.3853 70.5304 54.7807 71.1048 54.9037L76.2493 55.9581C78.2091 56.3798 79.1891 57.7505 79.1891 60.0701V61.7834C79.1891 64.6478 77.8121 66.08 75.0582 66.08H68.6466L67.1514 64.8675Z" fill="#D52B1E"/>
<path d="M81.1901 50.818V47.8922H95.3059V50.818H89.8066V66.08H86.6895V50.818H81.1901Z" fill="#D52B1E"/>
<path d="M97.8267 61.7834V52.1887C97.8267 49.3243 99.2037 47.8922 101.958 47.8922H107.761C110.515 47.8922 111.892 49.3243 111.892 52.1887V61.7834C111.892 64.6478 110.515 66.08 107.761 66.08H101.958C99.2037 66.08 97.8267 64.6478 97.8267 61.7834ZM100.918 62.0207C100.918 62.7763 101.29 63.1541 102.034 63.1541H107.685C108.428 63.1541 108.8 62.7763 108.8 62.0207V51.9515C108.8 51.1958 108.428 50.818 107.685 50.818H102.034C101.29 50.818 100.918 51.1958 100.918 51.9515V62.0207Z" fill="#D52B1E"/>
<path d="M115.949 66.08V47.8922H124.362C127.116 47.8922 128.493 49.3243 128.493 52.1887V55.1673C128.493 57.3815 127.648 58.7258 125.959 59.2002L129 65.3946L128.62 66.08H125.984L122.74 59.4375H119.04V66.08H115.949ZM119.04 56.5116H124.286C125.03 56.5116 125.401 56.125 125.401 55.3518V51.9515C125.401 51.1958 125.03 50.818 124.286 50.818H119.04V56.5116Z" fill="#D52B1E"/>
</svg>
