<svg width="22" height="22" viewBox="0 0 22 22" fill="none" xmlns="http://www.w3.org/2000/svg">
<rect width="22" height="22" rx="1" fill="#424242"/>
<path d="M8 4C7.44688 4 7 4.44687 7 5V11.5H5.75C5.33437 11.5 5 11.8344 5 12.25C5 12.6656 5.33437 13 5.75 13H7V14.5H5.75C5.33437 14.5 5 14.8344 5 15.25C5 15.6656 5.33437 16 5.75 16H7V17C7 17.5531 7.44688 18 8 18C8.55312 18 9 17.5531 9 17V16H13.75C14.1656 16 14.5 15.6656 14.5 15.25C14.5 14.8344 14.1656 14.5 13.75 14.5H9V13H12.5C14.9844 13 17 10.9844 17 8.5C17 6.01562 14.9844 4 12.5 4H8ZM12.5 11H9V6H12.5C13.8813 6 15 7.11875 15 8.5C15 9.88125 13.8813 11 12.5 11Z" fill="#F3F3F3"/>
</svg>
