<svg width="21" height="22" viewBox="0 0 21 22" fill="currentColor" xmlns="http://www.w3.org/2000/svg">
<path d="M21 10.5596V21.12C21 21.3534 20.9078 21.5772 20.7437 21.7422C20.5796 21.9073 20.3571 22 20.125 22H14C13.7679 22 13.5454 21.9073 13.3813 21.7422C13.2172 21.5772 13.125 21.3534 13.125 21.12V15.3998C13.125 15.2831 13.0789 15.1711 12.9969 15.0886C12.9148 15.0061 12.8035 14.9597 12.6875 14.9597H8.3125C8.19647 14.9597 8.08519 15.0061 8.00314 15.0886C7.92109 15.1711 7.875 15.2831 7.875 15.3998V21.12C7.875 21.3534 7.78281 21.5772 7.61872 21.7422C7.45462 21.9073 7.23206 22 7 22H0.875C0.642936 22 0.420376 21.9073 0.256282 21.7422C0.0921874 21.5772 0 21.3534 0 21.12V10.5596C0.000215129 10.0929 0.184731 9.64534 0.512969 9.31543L9.26297 0.515103C9.59112 0.185277 10.0361 0 10.5 0C10.9639 0 11.4089 0.185277 11.737 0.515103L20.487 9.31543C20.8153 9.64534 20.9998 10.0929 21 10.5596Z" />
</svg>
